<svg width="158" height="48" viewBox="0 0 158 48" fill="none" xmlns="http://www.w3.org/2000/svg">
<path d="M16.0498 31.4596L5.98863 25.7022V22.5114L16.0498 16.7774V20.5338L9.03179 24.0662L16.0498 27.7313V31.4596Z" fill="#222831"/>
<path d="M16.9809 33.9906L20.6154 14.0084H22.7308L19.0555 33.9906H16.9809Z" fill="#222831"/>
<path d="M23.6606 31.4754V27.7436L30.687 24.1059L23.6606 20.5069V16.8031L33.7318 22.5377V25.7022L23.6606 31.4754Z" fill="#222831"/>
<path d="M19.8596 48.0001L0 36.0009V11.9997L19.8596 0L39.7204 12.0003V35.9992L19.8596 48.0001ZM2.0148 34.7826L19.8596 45.5651L37.7056 34.7826V13.2175L19.8596 2.43446L2.0148 13.217V34.7826Z" fill="#222831"/>
<path d="M52.5962 32.1688H48.1427V9.36374H52.5962V32.1688ZM62.7118 19.1183C60.2942 19.1183 58.4174 21.1824 58.4174 23.7126C58.4174 26.2761 60.2942 28.3069 62.7118 28.3069C65.2566 28.3069 67.1653 26.2761 67.1653 23.7126C67.1653 21.1824 65.193 19.1183 62.7118 19.1183ZM67.1016 32.1688V30.9037C65.9565 31.8359 64.1751 32.4018 62.3301 32.4018C57.8767 32.4018 54.0912 28.6398 54.0912 23.7126C54.0912 18.7854 57.8767 14.9235 62.3301 14.9235C64.1751 14.9235 65.9565 15.5228 67.1016 16.4549V15.09H71.5233V32.1688H67.1016ZM88.3827 19.1183C85.8379 19.1183 83.9293 21.1491 83.9293 23.7126C83.9293 26.2428 85.9015 28.3069 88.3827 28.3069C90.8003 28.3069 92.6771 26.2428 92.6771 23.7126C92.6771 21.1491 90.8003 19.1183 88.3827 19.1183ZM88.7644 32.4018C86.9194 32.4018 85.1381 31.8026 83.9929 30.8704V38.0282H79.5713V15.09H83.9929V16.4216C85.1381 15.4895 86.9194 14.9235 88.7644 14.9235C93.2179 14.9235 97.0033 18.6855 97.0033 23.6127C97.0033 28.5399 93.2179 32.4018 88.7644 32.4018ZM102.952 32.1688H98.4984V9.36374H102.952V32.1688ZM113.067 19.1183C110.65 19.1183 108.773 21.1824 108.773 23.7126C108.773 26.2761 110.65 28.3069 113.067 28.3069C115.612 28.3069 117.521 26.2761 117.521 23.7126C117.521 21.1824 115.549 19.1183 113.067 19.1183ZM117.457 32.1688V30.9037C116.312 31.8359 114.531 32.4018 112.686 32.4018C108.232 32.4018 104.447 28.6398 104.447 23.7126C104.447 18.7854 108.232 14.9235 112.686 14.9235C114.531 14.9235 116.312 15.5228 117.457 16.4549V15.09H121.879V32.1688H117.457ZM136.162 25.9099L139.597 28.207C138.039 30.8371 135.557 32.5683 131.995 32.5683C126.937 32.5683 123.374 28.6398 123.374 23.6793C123.374 18.7188 126.937 14.757 131.995 14.757C135.589 14.757 138.102 16.5548 139.629 19.2182L136.162 21.482C135.335 20.0505 134.158 18.9851 132.154 18.9851C129.577 18.9851 127.827 20.8828 127.827 23.6793C127.827 26.4758 129.577 28.4068 132.154 28.4068C134.158 28.4068 135.335 27.3414 136.162 25.9099ZM156.966 28.5067C155.375 31.0036 152.862 32.5683 149.236 32.5683C144.019 32.5683 140.647 28.7397 140.647 23.6793C140.647 18.7521 144.146 14.757 149.268 14.757C154.421 14.757 157.538 18.4858 157.538 23.4463C157.538 24.1121 157.475 24.9777 157.475 25.0776H145.005C145.482 27.2416 147.041 28.6398 149.331 28.6398C151.303 28.6398 152.735 27.7409 153.657 26.376L156.966 28.5067ZM149.236 18.5523C147.168 18.5523 145.737 19.7176 145.164 21.6485H153.085C152.608 19.5844 151.017 18.5523 149.236 18.5523Z" fill="#222831"/>
</svg>
